Normalized EMG Linear Envelopes
nRows=226
nColumns=4

endheader
time	 med_gas_r	  soleus_r	 tib_ant_r	
2.66129	  0.002242	  0.004986	  0.001362	
2.69456	  0.002487	  0.004991	  0.001433	
2.72782	  0.002718	  0.004990	  0.001495	
2.76109	  0.002918	  0.004984	  0.001539	
2.79435	  0.003090	  0.004970	  0.001562	
2.82762	  0.003242	  0.004944	  0.001562	
2.86089	  0.003376	  0.004898	  0.001544	
2.89415	  0.003481	  0.004824	  0.001513	
2.92742	  0.003539	  0.004720	  0.001475	
2.96069	  0.003540	  0.004590	  0.001435	
2.99395	  0.003487	  0.004444	  0.001396	
3.02722	  0.003402	  0.004296	  0.001359	
3.06048	  0.003311	  0.004167	  0.001328	
3.09375	  0.003237	  0.004078	  0.001305	
3.12702	  0.003195	  0.004045	  0.001294	
3.16028	  0.003179	  0.004072	  0.001299	
3.19355	  0.003170	  0.004154	  0.001318	
3.22681	  0.003140	  0.004277	  0.001350	
3.26008	  0.003073	  0.004427	  0.001391	
3.29335	  0.002975	  0.004585	  0.001437	
3.32661	  0.002867	  0.004728	  0.001483	
3.35988	  0.002773	  0.004837	  0.001522	
3.39315	  0.002703	  0.004902	  0.001550	
3.42641	  0.002654	  0.004926	  0.001565	
3.45968	  0.002618	  0.004921	  0.001566	
3.49294	  0.002585	  0.004901	  0.001559	
3.52621	  0.002556	  0.004879	  0.001549	
3.55948	  0.002533	  0.004862	  0.001542	
3.59274	  0.002522	  0.004865	  0.001540	
3.62601	  0.002526	  0.004899	  0.001543	
3.65927	  0.002551	  0.004971	  0.001548	
3.69254	  0.002595	  0.005073	  0.001555	
3.72581	  0.002653	  0.005185	  0.001566	
3.75907	  0.002714	  0.005277	  0.001591	
3.79234	  0.002764	  0.005323	  0.001641	
3.8256	  0.002795	  0.005307	  0.001728	
3.85887	  0.002809	  0.005230	  0.001862	
3.89214	  0.002813	  0.005103	  0.002043	
3.9254	  0.002817	  0.004952	  0.002259	
3.95867	  0.002829	  0.004805	  0.002484	
3.99194	  0.002853	  0.004684	  0.002669	
4.0252	  0.002888	  0.004614	  0.002735	
4.05847	  0.002926	  0.004616	  0.002566	
4.09173	  0.002951	  0.004717	  0.002001	
4.125	  0.002942	  0.004936	  0.000856	
4.15827	  0.002878	  0.005294	 -0.001051	
4.19153	  0.002749	  0.005803	 -0.003863	
4.2248	  0.002557	  0.006448	 -0.007640	
4.25806	  0.002320	  0.007131	 -0.012281	
4.29133	  0.002064	  0.007633	 -0.017376	
4.3246	  0.001830	  0.007685	 -0.022011	
4.35786	  0.001681	  0.007175	 -0.024616	
4.39113	  0.001716	  0.006383	 -0.022931	
4.4244	  0.002078	  0.006073	 -0.014054	
4.45766	  0.002946	  0.007386	  0.005543	
4.49093	  0.004524	  0.011615	  0.039932	
4.52419	  0.007017	  0.019990	  0.093100	
4.55746	  0.010564	  0.033440	  0.167324	
4.59073	  0.015138	  0.052245	  0.260913	
4.62399	  0.020456	  0.075629	  0.366806	
4.65726	  0.025985	  0.101590	  0.473573	
4.69052	  0.031084	  0.127286	  0.568848	
4.72379	  0.035252	  0.149939	  0.643285	
4.75706	  0.038312	  0.167761	  0.692854	
4.79032	  0.040405	  0.180315	  0.718799	
4.82359	  0.041813	  0.188125	  0.726239	
4.85685	  0.042729	  0.191978	  0.722431	
4.89012	  0.043167	  0.192546	  0.714928	
4.92339	  0.043042	  0.190535	  0.709552	
4.95665	  0.042334	  0.186942	  0.708750	
4.98992	  0.041156	  0.182939	  0.711312	
5.02319	  0.039703	  0.179402	  0.713810	
5.05645	  0.038138	  0.176545	  0.712947	
5.08972	  0.036546	  0.174006	  0.707374	
5.12298	  0.034972	  0.171265	  0.697974	
5.15625	  0.033477	  0.168011	  0.686761	
5.18952	  0.032145	  0.164253	  0.675521	
5.22278	  0.031056	  0.160263	  0.665237	
5.25605	  0.030257	  0.156525	  0.656463	
5.28931	  0.029748	  0.153650	  0.649882	
5.32258	  0.029467	  0.152158	  0.646284	
5.35585	  0.029284	  0.152206	  0.646019	
5.38911	  0.029033	  0.153439	  0.648617	
5.42238	  0.028586	  0.155136	  0.653005	
5.45565	  0.027931	  0.156501	  0.658012	
5.48891	  0.027187	  0.156896	  0.662593	
5.52218	  0.026542	  0.155956	  0.665781	
5.55544	  0.026164	  0.153659	  0.666871	
5.58871	  0.026127	  0.150375	  0.666006	
5.62198	  0.026408	  0.146768	  0.664693	
5.65524	  0.026925	  0.143531	  0.665534	
5.68851	  0.027589	  0.141095	  0.671056	
5.72177	  0.028321	  0.139516	  0.682231	
5.75504	  0.029043	  0.138574	  0.697550	
5.78831	  0.029678	  0.138012	  0.713274	
5.82157	  0.030164	  0.137753	  0.724846	
5.85484	  0.030484	  0.137972	  0.728826	
5.8881	  0.030649	  0.138941	  0.724340	
5.92137	  0.030676	  0.140761	  0.713188	
5.95464	  0.030566	  0.143187	  0.698502	
5.9879	  0.030315	  0.145686	  0.682870	
6.02117	  0.029927	  0.147658	  0.667295	
6.05444	  0.029427	  0.148613	  0.651640	
6.0877	  0.028855	  0.148219	  0.635900	
6.12097	  0.028279	  0.146312	  0.620973	
6.15423	  0.027802	  0.142992	  0.608257	
6.1875	  0.027555	  0.138765	  0.598650	
6.22077	  0.027645	  0.134544	  0.592030	
6.25403	  0.028100	  0.131393	  0.587655	
6.2873	  0.028847	  0.130129	  0.584926	
6.32056	  0.029756	  0.131023	  0.583717	
6.35383	  0.030701	  0.133785	  0.584093	
6.3871	  0.031600	  0.137756	  0.585955	
6.42036	  0.032409	  0.142152	  0.589112	
6.45363	  0.033108	  0.146216	  0.593595	
6.4869	  0.033706	  0.149271	  0.599670	
6.52016	  0.034256	  0.150761	  0.607400	
6.55343	  0.034826	  0.150346	  0.616246	
6.58669	  0.035417	  0.148042	  0.625150	
6.61996	  0.035912	  0.144294	  0.633024	
6.65323	  0.036106	  0.139899	  0.639146	
6.68649	  0.035835	  0.135723	  0.643174	
6.71976	  0.035097	  0.132375	  0.644971	
6.75302	  0.034052	  0.130040	  0.644656	
6.78629	  0.032928	  0.128627	  0.642987	
6.81956	  0.031906	  0.128096	  0.641549	
6.85282	  0.031086	  0.128613	  0.642128	
6.88609	  0.030508	  0.130364	  0.645404	
6.91935	  0.030187	  0.133220	  0.649999	
6.95262	  0.030120	  0.136678	  0.652832	
6.98589	  0.030290	  0.140163	  0.650661	
7.01915	  0.030652	  0.143380	  0.641718	
7.05242	  0.031123	  0.146322	  0.626470	
7.08569	  0.031603	  0.149017	  0.607383	
7.11895	  0.032013	  0.151338	  0.588118	
7.15222	  0.032321	  0.153017	  0.572425	
7.18548	  0.032531	  0.153729	  0.562842	
7.21875	  0.032630	  0.153144	  0.559598	
7.25202	  0.032568	  0.151039	  0.560556	
7.28528	  0.032286	  0.147497	  0.562574	
7.31855	  0.031763	  0.143014	  0.563476	
7.35181	  0.031039	  0.138360	  0.563176	
7.38508	  0.030190	  0.134255	  0.563181	
7.41835	  0.029291	  0.131117	  0.565083	
7.45161	  0.028419	  0.129029	  0.569353	
7.48488	  0.027664	  0.127855	  0.575149	
7.51815	  0.027130	  0.127385	  0.580921	
7.55141	  0.026896	  0.127447	  0.585185	
7.58468	  0.026992	  0.127976	  0.587123	
7.61794	  0.027390	  0.129001	  0.586838	
7.65121	  0.028039	  0.130572	  0.585134	
7.68448	  0.028898	  0.132670	  0.582859	
7.71774	  0.029958	  0.135200	  0.580285	
7.75101	  0.031207	  0.138045	  0.577107	
7.78427	  0.032572	  0.141117	  0.573103	
7.81754	  0.033886	  0.144315	  0.568751	
7.85081	  0.034917	  0.147364	  0.565125	
7.88407	  0.035447	  0.149693	  0.563176	
7.91734	  0.035365	  0.150547	  0.563140	
7.9506	  0.034709	  0.149393	  0.564577	
7.98387	  0.033639	  0.146323	  0.566830	
8.01714	  0.032368	  0.142119	  0.569363	
8.0504	  0.031103	  0.137857	  0.571798	
8.08367	  0.030008	  0.134414	  0.573909	
8.11694	  0.029203	  0.132249	  0.575776	
8.1502	  0.028771	  0.131548	  0.577889	
8.18347	  0.028735	  0.132413	  0.580827	
8.21673	  0.029020	  0.134848	  0.584654	
8.25	  0.029456	  0.138561	  0.588656	
8.28327	  0.029854	  0.142837	  0.591885	
8.31653	  0.030092	  0.146677	  0.594011	
8.3498	  0.030155	  0.149171	  0.595391	
8.38306	  0.030084	  0.149904	  0.596083	
8.41633	  0.029909	  0.149146	  0.594899	
8.4496	  0.029631	  0.147714	  0.589885	
8.48286	  0.029260	  0.146582	  0.580129	
8.51613	  0.028853	  0.146451	  0.567214	
8.5494	  0.028498	  0.147513	  0.554747	
8.58266	  0.028268	  0.149438	  0.546218	
8.61593	  0.028189	  0.151525	  0.542861	
8.64919	  0.028246	  0.152941	  0.543073	
8.68246	  0.028415	  0.153039	  0.543552	
8.71573	  0.028695	  0.151667	  0.541186	
8.74899	  0.029127	  0.149270	  0.534568	
8.78226	  0.029775	  0.146664	  0.524564	
8.81552	  0.030687	  0.144647	  0.513930	
8.84879	  0.031847	  0.143769	  0.506217	
8.88206	  0.033157	  0.144346	  0.504273	
8.91532	  0.034452	  0.146533	  0.508785	
8.94859	  0.035541	  0.150282	  0.517400	
8.98185	  0.036229	  0.155154	  0.524946	
9.01512	  0.036312	  0.160128	  0.524889	
9.04839	  0.035584	  0.163592	  0.511519	
9.08165	  0.033882	  0.163621	  0.481893	
9.11492	  0.031157	  0.158536	  0.436643	
9.14819	  0.027522	  0.147552	  0.379399	
9.18145	  0.023256	  0.131183	  0.315372	
9.21472	  0.018751	  0.111133	  0.249922	
9.24798	  0.014423	  0.089718	  0.187653	
9.28125	  0.010622	  0.069155	  0.132064	
9.31452	  0.007558	  0.051070	  0.085480	
9.34778	  0.005285	  0.036358	  0.049032	
9.38105	  0.003733	  0.025258	  0.022671	
9.41431	  0.002772	  0.017474	  0.005336	
9.44758	  0.002259	  0.012348	 -0.004693	
9.48085	  0.002067	  0.009084	 -0.009351	
9.51411	  0.002084	  0.006991	 -0.010429	
9.54738	  0.002221	  0.005624	 -0.009383	
9.58065	  0.002406	  0.004761	 -0.007292	
9.61391	  0.002590	  0.004295	 -0.004892	
9.64718	  0.002748	  0.004127	 -0.002642	
9.68044	  0.002870	  0.004147	 -0.000781	
9.71371	  0.002958	  0.004260	  0.000611	
9.74698	  0.003018	  0.004409	  0.001552	
9.78024	  0.003052	  0.004573	  0.002114	
9.81351	  0.003062	  0.004741	  0.002387	
9.84677	  0.003050	  0.004900	  0.002462	
9.88004	  0.003024	  0.005027	  0.002419	
9.91331	  0.002994	  0.005106	  0.002327	
9.94657	  0.002970	  0.005135	  0.002235	
9.97984	  0.002957	  0.005128	  0.002176	
10.0131	  0.002953	  0.005104	  0.002169	
10.0464	  0.002954	  0.005072	  0.002214	
10.0796	  0.002959	  0.005032	  0.002305	
10.1129	  0.002966	  0.004982	  0.002427	
10.1462	  0.002975	  0.004925	  0.002565	
